<svg width="88" height="48" viewBox="0 0 88 48" fill="none" xmlns="http://www.w3.org/2000/svg">
<mask id="mask0_22_2002" style="mask-type:luminance" maskUnits="userSpaceOnUse" x="0" y="0" width="88" height="48">
<path d="M88 0H0V47.6227H88V0Z" fill="white"/>
</mask>
<g mask="url(#mask0_22_2002)">
<path d="M18.5479 1.37512C19.4435 2.2919 19.8913 3.57041 19.8913 5.21063V12.3578H16.8847V5.62848C16.8847 4.67427 16.6471 3.94774 16.175 3.44256C15.7028 2.93739 15.057 2.68481 14.2407 2.68481C13.4243 2.68481 12.7755 2.93739 12.2972 3.44256C11.8159 3.94774 11.5783 4.6774 11.5783 5.62848V12.3578H8.5718V5.62848C8.5718 4.67427 8.3342 3.94774 7.86203 3.44256C7.3899 2.93739 6.7441 2.68481 5.92773 2.68481C5.11137 2.68481 4.44123 2.93739 3.963 3.44256C3.4817 3.94774 3.2441 4.6774 3.2441 5.62848V12.3578H0.237549V0.17457H3.2441V1.64641C3.63096 1.13501 4.12746 0.729627 4.7367 0.436507C5.34593 0.143386 6.01607 -0.00317383 6.7441 -0.00317383C7.67623 -0.00317383 8.50477 0.199516 9.23586 0.601779C9.96693 1.00404 10.5305 1.58093 10.9326 2.3262C11.3194 1.62146 11.8799 1.05705 12.6201 0.63296C13.3573 0.208871 14.1554 -0.00317383 15.0144 -0.00317383C16.4735 -0.00317383 17.6523 0.455216 18.5479 1.372V1.37512Z" fill="#4133A6"/>
<path d="M34.1292 0.174561L26.7635 18.1173H23.562L26.139 12.0491L21.3718 0.174561H24.7439L27.8144 8.68441L30.9305 0.174561H34.1322H34.1292Z" fill="#4133A6"/>
<path d="M7.91084 26.5678C9.0775 25.9379 10.4117 25.623 11.9135 25.623C13.6589 25.623 15.2398 26.0627 16.6533 26.9451C18.0667 27.8276 19.1846 29.0781 20.0101 30.7028C20.8326 32.3274 21.2468 34.2077 21.2468 36.347C21.2468 38.486 20.8356 40.382 20.0101 42.0284C19.1846 43.6779 18.0667 44.9563 16.6533 45.8608C15.2398 46.7684 13.6589 47.2203 11.9135 47.2203C10.3873 47.2203 9.05314 46.9115 7.91084 46.2943C6.76853 45.6767 5.85164 44.8784 5.1632 43.8962V46.8806H0V18.9404H5.1632V29.0219C5.82727 28.0147 6.74417 27.1977 7.91084 26.5678ZM15.2155 33.0821C14.7129 32.1651 14.0488 31.4636 13.2233 30.9864C12.3978 30.5093 11.5083 30.2692 10.5488 30.2692C9.58927 30.2692 8.7333 30.5157 7.91084 31.0052C7.08533 31.4948 6.4243 32.2088 5.91867 33.1382C5.413 34.0706 5.1632 35.1649 5.1632 36.4216C5.1632 37.6782 5.41604 38.7759 5.91867 39.7083C6.42127 40.6407 7.08533 41.3517 7.91084 41.8413C8.7333 42.3308 9.61364 42.5771 10.5488 42.5771C11.484 42.5771 12.3978 42.3248 13.2233 41.8225C14.0458 41.3174 14.7098 40.6001 15.2155 39.671C15.7181 38.7417 15.9709 37.6315 15.9709 36.347C15.9709 35.0621 15.7181 33.9987 15.2155 33.0787V33.0821Z" fill="#4133A6"/>
<path d="M62.775 28.021C64.2737 29.5958 65.026 31.7909 65.026 34.61V46.8837H59.8628V35.3303C59.8628 33.6682 59.4577 32.393 58.6444 31.4979C57.8339 30.6028 56.7251 30.157 55.3241 30.157C53.9228 30.157 52.7715 30.6028 51.9489 31.4979C51.1235 32.393 50.7123 33.6682 50.7123 35.3303V46.8837H45.5488V25.9629H50.7123V28.5698C51.4005 27.6624 52.2808 26.9514 53.3502 26.4369C54.4192 25.9224 55.5951 25.6636 56.8714 25.6636C59.3054 25.6636 61.2732 26.4494 62.775 28.0241V28.021Z" fill="#4133A6"/>
<path d="M81.2861 46.8836L74.3502 37.9715V46.8836H69.187V18.9404H74.3502V34.8377L81.2099 25.9629H87.9237L78.9222 36.4622L87.9969 46.8836H81.2831H81.2861Z" fill="#4133A6"/>
<path d="M28.4753 38.1275C29.5719 37.691 30.6166 37.1951 31.6068 36.6494C32.5966 36.1004 33.4405 35.4986 34.1351 34.8407C35.1799 33.8835 36.0144 32.7639 36.6449 31.4918C37.2725 30.2163 37.5893 28.8411 37.5893 27.3599C37.5893 26.8111 37.5343 26.4494 37.4278 26.2716C37.3213 26.0939 37.1599 26.0035 36.9466 26.0035C36.3588 26.0035 35.7221 26.3122 35.0397 26.9296C34.3572 27.547 33.6812 28.3671 33.0108 29.3962C32.3408 30.422 31.7315 31.5946 31.1832 32.9104C30.6348 34.2265 30.1933 35.5954 29.8582 37.0204C29.5231 38.4454 29.3556 39.83 29.3556 41.171C29.3556 42.7052 29.6419 43.7528 30.2177 44.3143C30.7932 44.8754 31.5367 45.156 32.4443 45.156C33.1662 45.156 34.065 44.9097 35.1341 44.4171C36.2034 43.9245 37.2634 43.0482 38.3051 41.7882L38.9478 42.1158C38.3843 43.02 37.6503 43.8963 36.7393 44.7444C35.8287 45.5927 34.7717 46.2849 33.5683 46.8212C32.3651 47.3544 31.0524 47.6225 29.6328 47.6225C28.4296 47.6225 27.3512 47.4045 26.4008 46.9647C25.4504 46.5282 24.7011 45.8763 24.1528 45.0128C23.6045 44.149 23.3303 43.0886 23.3303 41.8289C23.3303 40.3757 23.5649 38.8852 24.034 37.348C24.5031 35.8138 25.1641 34.3263 26.0201 32.8886C26.876 31.4512 27.9056 30.1508 29.1119 28.9846C30.3151 27.8214 31.6553 26.9015 33.1268 26.2311C34.5979 25.5607 36.1637 25.2239 37.8238 25.2239C39.0027 25.2239 39.9926 25.492 40.794 26.0253C41.5981 26.5585 41.9972 27.3755 41.9972 28.47C41.9972 29.5646 41.7107 30.5376 41.1351 31.47C40.5594 32.4021 39.7887 33.2504 38.8261 34.0175C37.8636 34.7846 36.7851 35.4707 35.5941 36.0725C34.4031 36.6743 33.1847 37.1951 31.9418 37.6346C30.6958 38.0744 29.5262 38.4144 28.4296 38.6607L28.4692 38.1275H28.4753Z" fill="#4133A6"/>
</g>
</svg>
