<svg width="148" height="112" viewBox="0 0 148 112" fill="none" xmlns="http://www.w3.org/2000/svg">
<mask id="mask0_22_2021" style="mask-type:luminance" maskUnits="userSpaceOnUse" x="8" y="8" width="132" height="72">
<path d="M140 8H8V79.434H140V8Z" fill="white"/>
</mask>
<g mask="url(#mask0_22_2021)">
<path d="M35.822 10.0628C37.1653 11.438 37.837 13.3557 37.837 15.8161V26.5368H33.3272V16.4428C33.3272 15.0115 32.9708 13.9217 32.2626 13.164C31.5543 12.4062 30.5857 12.0273 29.3611 12.0273C28.1366 12.0273 27.1633 12.4062 26.446 13.164C25.724 13.9217 25.3676 15.0162 25.3676 16.4428V26.5368H20.8578V16.4428C20.8578 15.0115 20.5014 13.9217 19.7932 13.164C19.085 12.4062 18.1163 12.0273 16.8917 12.0273C15.6672 12.0273 14.662 12.4062 13.9446 13.164C13.2227 13.9217 12.8663 15.0162 12.8663 16.4428V26.5368H8.35645V8.26198H12.8663V10.4697C13.4466 9.70263 14.1913 9.09456 15.1052 8.65488C16.019 8.2152 17.0242 7.99536 18.1163 7.99536C19.5145 7.99536 20.7573 8.2994 21.8539 8.90279C22.9505 9.50618 23.7958 10.3715 24.399 11.4894C24.9792 10.4323 25.82 9.5857 26.9303 8.94956C28.036 8.31343 29.2332 7.99536 30.5217 7.99536C32.7104 7.99536 34.4786 8.68295 35.822 10.0581V10.0628Z" fill="#4133A6"/>
<path d="M59.1937 8.26196L48.1451 35.176H43.3429L47.2084 26.0737L40.0576 8.26196H45.1157L49.7215 21.0267L54.3957 8.26196H59.1982H59.1937Z" fill="#4133A6"/>
<path d="M19.8663 47.8519C21.6163 46.9071 23.6176 46.4347 25.8702 46.4347C28.4884 46.4347 30.8598 47.0942 32.9799 48.4179C35.1 49.7416 36.7769 51.6173 38.0152 54.0545C39.2489 56.4914 39.8703 59.3118 39.8703 62.5207C39.8703 65.7292 39.2534 68.5733 38.0152 71.0429C36.7769 73.517 35.1 75.4347 32.9799 76.7915C30.8598 78.1528 28.4884 78.8307 25.8702 78.8307C23.581 78.8307 21.5797 78.3675 19.8663 77.4416C18.1528 76.5153 16.7775 75.3178 15.7448 73.8446V78.3211H8V36.4109H15.7448V51.5331C16.7409 50.0223 18.1163 48.7968 19.8663 47.8519ZM30.8232 57.6233C30.0693 56.2479 29.0732 55.1956 27.835 54.4799C26.5967 53.7642 25.2625 53.4041 23.8232 53.4041C22.3839 53.4041 21.1 53.7738 19.8663 54.5081C18.628 55.2424 17.6365 56.3135 16.878 57.7075C16.1195 59.1061 15.7448 60.7477 15.7448 62.6326C15.7448 64.5176 16.1241 66.1642 16.878 67.5627C17.6319 68.9613 18.628 70.0278 19.8663 70.7621C21.1 71.4965 22.4205 71.8659 23.8232 71.8659C25.226 71.8659 26.5967 71.4874 27.835 70.7339C29.0687 69.9764 30.0647 68.9004 30.8232 67.5068C31.5772 66.1127 31.9564 64.4475 31.9564 62.5207C31.9564 60.5934 31.5772 58.9983 30.8232 57.6183V57.6233Z" fill="#4133A6"/>
<path d="M102.162 50.0315C104.411 52.3936 105.539 55.6864 105.539 59.9149V78.3256H97.7942V60.9955C97.7942 58.5022 97.1865 56.5895 95.9667 55.2469C94.7509 53.9042 93.0877 53.2356 90.9862 53.2356C88.8842 53.2356 87.1573 53.9042 85.9233 55.2469C84.6852 56.5895 84.0685 58.5022 84.0685 60.9955V78.3256H76.3232V46.9444H84.0685V50.8547C85.1008 49.4936 86.4212 48.4271 88.0253 47.6554C89.6288 46.8836 91.3926 46.4954 93.3071 46.4954C96.958 46.4954 99.9098 47.6741 102.162 50.0362V50.0315Z" fill="#4133A6"/>
<path d="M129.929 78.3257L119.526 64.9576V78.3257H111.781V36.4109H119.526V60.2567L129.815 46.9445H139.886L126.384 62.6936L139.996 78.3257H129.925H129.929Z" fill="#4133A6"/>
<path d="M50.713 65.1914C52.3579 64.5366 53.9251 63.7928 55.4103 62.9743C56.8951 62.1508 58.1609 61.2481 59.2028 60.2612C60.77 58.8253 62.0217 57.146 62.9675 55.2378C63.9088 53.3245 64.384 51.2618 64.384 49.04C64.384 48.2168 64.3016 47.6742 64.1419 47.4076C63.9821 47.1409 63.74 47.0053 63.42 47.0053C62.5383 47.0053 61.5833 47.4684 60.5597 48.3945C59.536 49.3206 58.5219 50.5508 57.5164 52.0944C56.5114 53.6331 55.5974 55.3921 54.7749 57.3658C53.9524 59.3399 53.29 61.3932 52.7874 63.5307C52.2848 65.6682 52.0335 67.7451 52.0335 69.7566C52.0335 72.0579 52.463 73.6294 53.3266 74.4715C54.19 75.3132 55.3052 75.7341 56.6666 75.7341C57.7494 75.7341 59.0976 75.3646 60.7012 74.6257C62.3052 73.8869 63.8952 72.5724 65.4578 70.6825L66.4218 71.1738C65.5766 72.5301 64.4755 73.8446 63.1091 75.1167C61.7431 76.3892 60.1577 77.4275 58.3525 78.2319C56.5478 79.0317 54.5787 79.4339 52.4493 79.4339C50.6445 79.4339 49.027 79.1068 47.6014 78.4471C46.1758 77.7924 45.0518 76.8146 44.2293 75.5193C43.4068 74.2235 42.9956 72.633 42.9956 70.7434C42.9956 68.5636 43.3474 66.3279 44.0511 64.0221C44.7548 61.7208 45.7463 59.4896 47.0302 57.333C48.3142 55.1769 49.8586 53.2263 51.668 51.477C53.4728 49.7323 55.4831 48.3524 57.6903 47.3468C59.8969 46.3411 62.2456 45.8359 64.7359 45.8359C66.5042 45.8359 67.989 46.2382 69.1911 47.038C70.3973 47.8379 70.9959 49.0634 70.9959 50.7052C70.9959 52.347 70.5662 53.8065 69.7027 55.2051C68.8393 56.6032 67.6831 57.8758 66.2393 59.0264C64.7955 60.1771 63.1778 61.2062 61.3913 62.1089C59.6047 63.0116 57.7772 63.7928 55.9128 64.452C54.0439 65.1117 52.2894 65.6218 50.6445 65.9912L50.7039 65.1914H50.713Z" fill="#4133A6"/>
</g>
<path d="M25.5146 95.9661C25.5146 93.4628 27.398 91.5769 29.9204 91.5769C31.302 91.5769 32.4259 92.1429 33.1519 93.0342C33.2555 93.172 33.2555 93.2917 33.1519 93.3945L32.3741 94.1316C32.2353 94.2694 32.063 94.2344 31.9593 94.1148C31.4576 93.617 30.8887 93.2917 30.0073 93.2917C28.4182 93.2917 27.3126 94.4237 27.3126 95.9661C27.3126 97.508 28.4182 98.675 30.0424 98.675C30.9055 98.675 31.4759 98.3497 31.9608 97.8519C32.0813 97.7323 32.2552 97.6972 32.3924 97.8351L33.1701 98.5722C33.2738 98.675 33.2738 98.7946 33.1701 98.9325C32.4442 99.8238 31.3218 100.39 29.957 100.39C27.4148 100.39 25.5146 98.4857 25.5146 95.9661Z" fill="#4133A6"/>
<path d="M33.9978 95.9492C33.9978 93.481 35.7256 91.5769 38.2999 91.5769C40.839 91.5769 42.3076 93.481 42.3076 95.5725C42.3076 96.3096 42.152 96.6699 41.513 96.6699H35.811C36.0352 98.0075 37.0371 98.8988 38.7131 98.8988C39.5427 98.8988 40.2168 98.6932 40.8908 98.2482C40.9945 98.18 41.0982 98.1968 41.1669 98.2996L41.6503 98.9507C41.754 99.0881 41.7189 99.1909 41.5817 99.3274C40.839 100.048 39.7501 100.39 38.5576 100.39C35.7943 100.39 33.9978 98.4525 33.9978 95.9492ZM40.6484 95.3318C40.5446 93.9605 39.6297 93.137 38.2983 93.137C36.9685 93.137 35.9834 93.9423 35.7927 95.3318H40.6484Z" fill="#4133A6"/>
<path d="M43.4988 99.9266V88.1823C43.4988 88.0281 43.5857 87.9248 43.7412 87.9248H45.1229C45.2785 87.9248 45.3654 88.0281 45.3654 88.1823V99.9284C45.3654 100.083 45.2785 100.186 45.1229 100.186H43.7412C43.5857 100.184 43.4988 100.081 43.4988 99.9266Z" fill="#4133A6"/>
<path d="M46.5569 95.9661C46.5569 93.4628 48.4403 91.5769 50.9626 91.5769C52.3443 91.5769 53.4682 92.1429 54.1941 93.0342C54.2979 93.172 54.2979 93.2917 54.1941 93.3945L53.4163 94.1316C53.2776 94.2694 53.1052 94.2344 53.0015 94.1148C52.4998 93.617 51.931 93.2917 51.0495 93.2917C49.4605 93.2917 48.3549 94.4237 48.3549 95.9661C48.3549 97.508 49.4605 98.675 51.0846 98.675C51.9478 98.675 52.5181 98.3497 53.0031 97.8519C53.1236 97.7323 53.2974 97.6972 53.4346 97.8351L54.2123 98.5722C54.3161 98.675 54.3161 98.7946 54.2123 98.9325C53.4865 99.8238 52.3641 100.39 50.9992 100.39C48.4585 100.39 46.5569 98.4857 46.5569 95.9661Z" fill="#4133A6"/>
<path d="M54.6943 95.9823C54.6943 93.4959 56.561 91.5754 59.0831 91.5754C61.5888 91.5754 63.4537 93.4959 63.4537 95.9823C63.4537 98.4692 61.5875 100.39 59.0831 100.39C56.561 100.39 54.6943 98.4692 54.6943 95.9823ZM59.0831 98.6749C60.5351 98.6749 61.6576 97.5943 61.6576 95.9823C61.6576 94.3708 60.5351 93.2902 59.0831 93.2902C57.6147 93.2902 56.4923 94.3708 56.4923 95.9823C56.4923 97.5943 57.6147 98.6749 59.0831 98.6749Z" fill="#4133A6"/>
<path d="M64.5073 88.9008C64.5073 88.3179 64.9739 87.8384 65.5961 87.8384C66.2015 87.8384 66.6667 88.3179 66.6667 88.9008C66.6667 89.5018 66.2001 89.9813 65.5961 89.9813C64.9739 89.9813 64.5073 89.5018 64.5073 88.9008ZM64.6457 92.0396C64.6457 91.8854 64.7326 91.7826 64.8883 91.7826H66.2884C66.4441 91.7826 66.531 91.8854 66.531 92.0396V99.9266C66.531 100.081 66.4441 100.184 66.2884 100.184H64.8883C64.7326 100.184 64.6457 100.081 64.6457 99.9266V92.0396Z" fill="#4133A6"/>
<path d="M68.4983 99.9266V92.0401C68.4983 91.8854 68.5852 91.7826 68.7409 91.7826H70.0536C70.2093 91.7826 70.2962 91.8508 70.2962 92.0564L70.365 93.0856C70.8484 92.2293 71.6945 91.5769 73.0259 91.5769C74.8225 91.5769 76.1019 92.8117 76.1019 95.0229V99.9266C76.1019 100.081 75.9982 100.184 75.8425 100.184H74.4779C74.3222 100.184 74.2353 100.081 74.2353 99.9266V95.3664C74.2353 94.047 73.578 93.2917 72.3868 93.2917C71.1943 93.2917 70.365 94.0451 70.365 95.3664V99.928C70.365 100.083 70.278 100.186 70.1224 100.186H68.7409C68.5852 100.184 68.4983 100.081 68.4983 99.9266Z" fill="#4133A6"/>
<path d="M13.0822 93.1466C13.7599 93.1466 14.377 93.3113 14.9332 93.6416C15.4941 93.972 15.9405 94.416 16.2724 94.9743C16.6042 95.5275 16.7702 96.144 16.7702 96.8228C16.7702 97.3297 16.6743 97.8065 16.4827 98.2528C16.291 98.6946 16.0246 99.0854 15.6834 99.4249C15.3469 99.7597 14.9566 100.023 14.5125 100.213C14.0684 100.404 13.5917 100.5 13.0822 100.5C12.4605 100.5 11.9253 100.35 11.4766 100.053C11.0325 99.7552 10.6866 99.3643 10.4389 98.8807V100.318H9.68164V89.8535H10.4389V94.765C10.6866 94.2813 11.0325 93.8905 11.4766 93.593C11.9253 93.2954 12.4605 93.1466 13.0822 93.1466ZM13.0752 99.7597C13.6174 99.7597 14.1082 99.6273 14.5476 99.3621C14.9916 99.0973 15.3445 98.7438 15.6063 98.302C15.8727 97.8552 16.0059 97.3624 16.0059 96.8228C16.0059 96.2741 15.8704 95.7787 15.5993 95.3369C15.3282 94.8906 14.9706 94.537 14.5265 94.2768C14.0871 94.0161 13.6033 93.886 13.0752 93.886C12.5376 93.886 12.0749 94.0184 11.6869 94.2836C11.3036 94.5484 11.0091 94.9042 10.8035 95.351C10.5978 95.7973 10.495 96.2882 10.495 96.8228C10.495 97.3715 10.5978 97.867 10.8035 98.3088C11.0138 98.7506 11.3106 99.1041 11.6939 99.3693C12.0819 99.6296 12.5423 99.7597 13.0752 99.7597Z" fill="#4133A6"/>
<path d="M21.9453 93.3418H22.7377L18.9094 103.806H18.1031L19.3792 100.318L16.8621 93.3418H17.6894L19.7578 99.2783L21.9453 93.3418Z" fill="#4133A6"/>
</svg>
